<mxfile host="app.diagrams.net" modified="2023-04-26T08:08:56.511Z" agent="Mozilla/5.0 (Windows NT 10.0; Win64; x64) AppleWebKit/537.36 (KHTML, like Gecko) Chrome/111.0.0.0 Safari/537.36" etag="_vunXCvJtY8fcaNuBWL2" version="21.2.1" type="github" pages="2">
  <diagram id="C5RBs43oDa-KdzZeNtuy" name="выбор скорости">
    <mxGraphModel dx="1247" dy="692" grid="1" gridSize="10" guides="1" tooltips="1" connect="1" arrows="1" fold="1" page="1" pageScale="1" pageWidth="827" pageHeight="1169" math="0" shadow="0">
      <root>
        <mxCell id="WIyWlLk6GJQsqaUBKTNV-0" />
        <mxCell id="WIyWlLk6GJQsqaUBKTNV-1" parent="WIyWlLk6GJQsqaUBKTNV-0" />
        <mxCell id="m7vEDp3PDKTlhW1fVyWn-32" value="Начало" style="rounded=1;whiteSpace=wrap;html=1;" vertex="1" parent="WIyWlLk6GJQsqaUBKTNV-1">
          <mxGeometry x="299.5" y="60" width="120" height="40" as="geometry" />
        </mxCell>
        <mxCell id="m7vEDp3PDKTlhW1fVyWn-37" value="пользователь выбрал вариант &quot;Такси&quot;" style="rounded=0;whiteSpace=wrap;html=1;" vertex="1" parent="WIyWlLk6GJQsqaUBKTNV-1">
          <mxGeometry x="300.5" y="140" width="120" height="60" as="geometry" />
        </mxCell>
        <mxCell id="m7vEDp3PDKTlhW1fVyWn-38" value="данные &lt;br&gt;корректны?" style="rhombus;whiteSpace=wrap;html=1;" vertex="1" parent="WIyWlLk6GJQsqaUBKTNV-1">
          <mxGeometry x="299.5" y="227" width="121" height="73" as="geometry" />
        </mxCell>
        <mxCell id="m7vEDp3PDKTlhW1fVyWn-39" value="" style="endArrow=classic;html=1;rounded=0;exitX=0;exitY=0.5;exitDx=0;exitDy=0;" edge="1" parent="WIyWlLk6GJQsqaUBKTNV-1" source="m7vEDp3PDKTlhW1fVyWn-38">
          <mxGeometry width="50" height="50" relative="1" as="geometry">
            <mxPoint x="299" y="206" as="sourcePoint" />
            <mxPoint x="230" y="264" as="targetPoint" />
          </mxGeometry>
        </mxCell>
        <mxCell id="m7vEDp3PDKTlhW1fVyWn-40" value="нет" style="text;html=1;align=center;verticalAlign=middle;resizable=0;points=[];autosize=1;strokeColor=none;fillColor=none;" vertex="1" parent="WIyWlLk6GJQsqaUBKTNV-1">
          <mxGeometry x="256" y="227" width="40" height="30" as="geometry" />
        </mxCell>
        <mxCell id="m7vEDp3PDKTlhW1fVyWn-41" value="вывод сообщения об ошибке" style="rounded=0;whiteSpace=wrap;html=1;" vertex="1" parent="WIyWlLk6GJQsqaUBKTNV-1">
          <mxGeometry x="120" y="233.5" width="110" height="60" as="geometry" />
        </mxCell>
        <mxCell id="m7vEDp3PDKTlhW1fVyWn-46" value="время начала&lt;br&gt;поездки&lt;br&gt;в диапазоне&lt;br&gt;00:01-08:00?" style="rhombus;whiteSpace=wrap;html=1;" vertex="1" parent="WIyWlLk6GJQsqaUBKTNV-1">
          <mxGeometry x="280.5" y="450" width="161" height="100" as="geometry" />
        </mxCell>
        <mxCell id="m7vEDp3PDKTlhW1fVyWn-50" value="" style="endArrow=classic;html=1;rounded=0;exitX=0.5;exitY=1;exitDx=0;exitDy=0;" edge="1" parent="WIyWlLk6GJQsqaUBKTNV-1" source="m7vEDp3PDKTlhW1fVyWn-44">
          <mxGeometry width="410" height="273" relative="1" as="geometry">
            <mxPoint x="360.66" y="507" as="sourcePoint" />
            <mxPoint x="361" y="450" as="targetPoint" />
          </mxGeometry>
        </mxCell>
        <mxCell id="m7vEDp3PDKTlhW1fVyWn-44" value="анализ времени начала поездки для определения средней скорости" style="rounded=0;whiteSpace=wrap;html=1;" vertex="1" parent="WIyWlLk6GJQsqaUBKTNV-1">
          <mxGeometry x="301" y="340" width="120" height="70" as="geometry" />
        </mxCell>
        <mxCell id="m7vEDp3PDKTlhW1fVyWn-60" value="" style="endArrow=classic;html=1;rounded=0;" edge="1" parent="WIyWlLk6GJQsqaUBKTNV-1">
          <mxGeometry width="50" height="50" relative="1" as="geometry">
            <mxPoint x="441.5" y="500" as="sourcePoint" />
            <mxPoint x="480" y="500" as="targetPoint" />
          </mxGeometry>
        </mxCell>
        <mxCell id="m7vEDp3PDKTlhW1fVyWn-61" value="да" style="text;html=1;align=center;verticalAlign=middle;resizable=0;points=[];autosize=1;strokeColor=none;fillColor=none;" vertex="1" parent="WIyWlLk6GJQsqaUBKTNV-1">
          <mxGeometry x="430" y="470" width="40" height="30" as="geometry" />
        </mxCell>
        <mxCell id="m7vEDp3PDKTlhW1fVyWn-62" value="средняя скорость&lt;br&gt;50 км/ч" style="rounded=0;whiteSpace=wrap;html=1;" vertex="1" parent="WIyWlLk6GJQsqaUBKTNV-1">
          <mxGeometry x="480" y="470" width="130" height="70" as="geometry" />
        </mxCell>
        <mxCell id="m7vEDp3PDKTlhW1fVyWn-67" value="" style="endArrow=classic;html=1;rounded=0;exitX=0.5;exitY=1;exitDx=0;exitDy=0;" edge="1" parent="WIyWlLk6GJQsqaUBKTNV-1" source="m7vEDp3PDKTlhW1fVyWn-46">
          <mxGeometry width="50" height="50" relative="1" as="geometry">
            <mxPoint x="470" y="530" as="sourcePoint" />
            <mxPoint x="361" y="578" as="targetPoint" />
          </mxGeometry>
        </mxCell>
        <mxCell id="m7vEDp3PDKTlhW1fVyWn-69" value="нет" style="text;html=1;align=center;verticalAlign=middle;resizable=0;points=[];autosize=1;strokeColor=none;fillColor=none;" vertex="1" parent="WIyWlLk6GJQsqaUBKTNV-1">
          <mxGeometry x="360" y="540" width="40" height="30" as="geometry" />
        </mxCell>
        <mxCell id="m7vEDp3PDKTlhW1fVyWn-71" value="08:01-12:00?" style="rhombus;whiteSpace=wrap;html=1;" vertex="1" parent="WIyWlLk6GJQsqaUBKTNV-1">
          <mxGeometry x="280" y="578" width="161" height="62" as="geometry" />
        </mxCell>
        <mxCell id="m7vEDp3PDKTlhW1fVyWn-72" value="" style="endArrow=classic;html=1;rounded=0;" edge="1" parent="WIyWlLk6GJQsqaUBKTNV-1">
          <mxGeometry width="50" height="50" relative="1" as="geometry">
            <mxPoint x="441.5" y="608.76" as="sourcePoint" />
            <mxPoint x="480" y="608.76" as="targetPoint" />
          </mxGeometry>
        </mxCell>
        <mxCell id="m7vEDp3PDKTlhW1fVyWn-73" value="&lt;br&gt;&lt;span style=&quot;color: rgb(0, 0, 0); font-family: Helvetica; font-size: 12px; font-style: normal; font-variant-ligatures: normal; font-variant-caps: normal; font-weight: 400; letter-spacing: normal; orphans: 2; text-align: center; text-indent: 0px; text-transform: none; widows: 2; word-spacing: 0px; -webkit-text-stroke-width: 0px; background-color: rgb(251, 251, 251); text-decoration-thickness: initial; text-decoration-style: initial; text-decoration-color: initial; float: none; display: inline !important;&quot;&gt;средняя скорость&lt;br&gt;35 км/ч&lt;/span&gt;" style="rounded=0;whiteSpace=wrap;html=1;" vertex="1" parent="WIyWlLk6GJQsqaUBKTNV-1">
          <mxGeometry x="480" y="570" width="130" height="70" as="geometry" />
        </mxCell>
        <mxCell id="m7vEDp3PDKTlhW1fVyWn-74" value="да" style="text;html=1;align=center;verticalAlign=middle;resizable=0;points=[];autosize=1;strokeColor=none;fillColor=none;" vertex="1" parent="WIyWlLk6GJQsqaUBKTNV-1">
          <mxGeometry x="430" y="560" width="40" height="30" as="geometry" />
        </mxCell>
        <mxCell id="m7vEDp3PDKTlhW1fVyWn-75" value="" style="endArrow=classic;html=1;rounded=0;exitX=0.5;exitY=1;exitDx=0;exitDy=0;" edge="1" parent="WIyWlLk6GJQsqaUBKTNV-1">
          <mxGeometry width="50" height="50" relative="1" as="geometry">
            <mxPoint x="360.76" y="640" as="sourcePoint" />
            <mxPoint x="360.76" y="668" as="targetPoint" />
          </mxGeometry>
        </mxCell>
        <mxCell id="m7vEDp3PDKTlhW1fVyWn-76" value="нет" style="text;html=1;align=center;verticalAlign=middle;resizable=0;points=[];autosize=1;strokeColor=none;fillColor=none;" vertex="1" parent="WIyWlLk6GJQsqaUBKTNV-1">
          <mxGeometry x="380" y="640" width="40" height="30" as="geometry" />
        </mxCell>
        <mxCell id="m7vEDp3PDKTlhW1fVyWn-78" value="12:01-18:00?" style="rhombus;whiteSpace=wrap;html=1;" vertex="1" parent="WIyWlLk6GJQsqaUBKTNV-1">
          <mxGeometry x="279.5" y="670" width="161" height="62" as="geometry" />
        </mxCell>
        <mxCell id="m7vEDp3PDKTlhW1fVyWn-79" value="" style="endArrow=classic;html=1;rounded=0;" edge="1" parent="WIyWlLk6GJQsqaUBKTNV-1">
          <mxGeometry width="50" height="50" relative="1" as="geometry">
            <mxPoint x="441.5" y="700.76" as="sourcePoint" />
            <mxPoint x="480" y="700.76" as="targetPoint" />
          </mxGeometry>
        </mxCell>
        <mxCell id="m7vEDp3PDKTlhW1fVyWn-80" value="&lt;br&gt;&lt;span style=&quot;color: rgb(0, 0, 0); font-family: Helvetica; font-size: 12px; font-style: normal; font-variant-ligatures: normal; font-variant-caps: normal; font-weight: 400; letter-spacing: normal; orphans: 2; text-align: center; text-indent: 0px; text-transform: none; widows: 2; word-spacing: 0px; -webkit-text-stroke-width: 0px; background-color: rgb(251, 251, 251); text-decoration-thickness: initial; text-decoration-style: initial; text-decoration-color: initial; float: none; display: inline !important;&quot;&gt;средняя скорость&lt;br&gt;42 км/ч&lt;/span&gt;" style="rounded=0;whiteSpace=wrap;html=1;" vertex="1" parent="WIyWlLk6GJQsqaUBKTNV-1">
          <mxGeometry x="480" y="662" width="130" height="70" as="geometry" />
        </mxCell>
        <mxCell id="m7vEDp3PDKTlhW1fVyWn-81" value="" style="endArrow=classic;html=1;rounded=0;exitX=0.5;exitY=1;exitDx=0;exitDy=0;" edge="1" parent="WIyWlLk6GJQsqaUBKTNV-1">
          <mxGeometry width="50" height="50" relative="1" as="geometry">
            <mxPoint x="359.76" y="732" as="sourcePoint" />
            <mxPoint x="359.76" y="760" as="targetPoint" />
          </mxGeometry>
        </mxCell>
        <mxCell id="MwBAbuxJ3wHfdtHK_xG5-9" value="" style="edgeStyle=orthogonalEdgeStyle;rounded=0;orthogonalLoop=1;jettySize=auto;html=1;" edge="1" parent="WIyWlLk6GJQsqaUBKTNV-1" source="m7vEDp3PDKTlhW1fVyWn-83" target="MwBAbuxJ3wHfdtHK_xG5-2">
          <mxGeometry relative="1" as="geometry" />
        </mxCell>
        <mxCell id="m7vEDp3PDKTlhW1fVyWn-83" value="нет" style="text;html=1;align=center;verticalAlign=middle;resizable=0;points=[];autosize=1;strokeColor=none;fillColor=none;" vertex="1" parent="WIyWlLk6GJQsqaUBKTNV-1">
          <mxGeometry x="373" y="730" width="40" height="30" as="geometry" />
        </mxCell>
        <mxCell id="m7vEDp3PDKTlhW1fVyWn-84" value="да" style="text;html=1;align=center;verticalAlign=middle;resizable=0;points=[];autosize=1;strokeColor=none;fillColor=none;" vertex="1" parent="WIyWlLk6GJQsqaUBKTNV-1">
          <mxGeometry x="440" y="670" width="40" height="30" as="geometry" />
        </mxCell>
        <mxCell id="m7vEDp3PDKTlhW1fVyWn-86" value="время начала поездки 22:01-00:00,&lt;br&gt;средняя скорость&lt;br&gt;50 км/ч" style="rounded=0;whiteSpace=wrap;html=1;" vertex="1" parent="WIyWlLk6GJQsqaUBKTNV-1">
          <mxGeometry x="294.5" y="850" width="130" height="60" as="geometry" />
        </mxCell>
        <mxCell id="IKG39ML8uWGZI7m-kIaF-2" value="" style="endArrow=classic;html=1;rounded=0;entryX=0.5;entryY=0;entryDx=0;entryDy=0;" edge="1" parent="WIyWlLk6GJQsqaUBKTNV-1" target="m7vEDp3PDKTlhW1fVyWn-37">
          <mxGeometry width="50" height="50" relative="1" as="geometry">
            <mxPoint x="360" y="100" as="sourcePoint" />
            <mxPoint x="440" y="120" as="targetPoint" />
          </mxGeometry>
        </mxCell>
        <mxCell id="IKG39ML8uWGZI7m-kIaF-3" value="" style="endArrow=classic;html=1;rounded=0;" edge="1" parent="WIyWlLk6GJQsqaUBKTNV-1">
          <mxGeometry width="50" height="50" relative="1" as="geometry">
            <mxPoint x="360" y="200" as="sourcePoint" />
            <mxPoint x="360" y="227" as="targetPoint" />
          </mxGeometry>
        </mxCell>
        <mxCell id="IKG39ML8uWGZI7m-kIaF-4" value="" style="endArrow=classic;html=1;rounded=0;" edge="1" parent="WIyWlLk6GJQsqaUBKTNV-1">
          <mxGeometry width="50" height="50" relative="1" as="geometry">
            <mxPoint x="360" y="300" as="sourcePoint" />
            <mxPoint x="360.14" y="340" as="targetPoint" />
          </mxGeometry>
        </mxCell>
        <mxCell id="IKG39ML8uWGZI7m-kIaF-5" value="да" style="text;html=1;align=center;verticalAlign=middle;resizable=0;points=[];autosize=1;strokeColor=none;fillColor=none;" vertex="1" parent="WIyWlLk6GJQsqaUBKTNV-1">
          <mxGeometry x="381" y="300" width="40" height="30" as="geometry" />
        </mxCell>
        <mxCell id="m7vEDp3PDKTlhW1fVyWn-33" value="Конец" style="rounded=1;whiteSpace=wrap;html=1;" vertex="1" parent="WIyWlLk6GJQsqaUBKTNV-1">
          <mxGeometry x="299.5" y="940" width="120" height="40" as="geometry" />
        </mxCell>
        <mxCell id="CSSnN474RRj8DlI3OBkh-0" value="" style="endArrow=none;html=1;rounded=0;exitX=1;exitY=0.5;exitDx=0;exitDy=0;" edge="1" parent="WIyWlLk6GJQsqaUBKTNV-1">
          <mxGeometry width="50" height="50" relative="1" as="geometry">
            <mxPoint x="610" y="505" as="sourcePoint" />
            <mxPoint x="680" y="505" as="targetPoint" />
          </mxGeometry>
        </mxCell>
        <mxCell id="CSSnN474RRj8DlI3OBkh-1" value="" style="endArrow=none;html=1;rounded=0;exitX=1;exitY=0.5;exitDx=0;exitDy=0;" edge="1" parent="WIyWlLk6GJQsqaUBKTNV-1">
          <mxGeometry width="50" height="50" relative="1" as="geometry">
            <mxPoint x="610" y="608.66" as="sourcePoint" />
            <mxPoint x="680" y="608.66" as="targetPoint" />
          </mxGeometry>
        </mxCell>
        <mxCell id="CSSnN474RRj8DlI3OBkh-2" value="" style="endArrow=none;html=1;rounded=0;exitX=1;exitY=0.5;exitDx=0;exitDy=0;" edge="1" parent="WIyWlLk6GJQsqaUBKTNV-1">
          <mxGeometry width="50" height="50" relative="1" as="geometry">
            <mxPoint x="610" y="696.66" as="sourcePoint" />
            <mxPoint x="680" y="696.66" as="targetPoint" />
          </mxGeometry>
        </mxCell>
        <mxCell id="CSSnN474RRj8DlI3OBkh-3" value="" style="endArrow=none;html=1;rounded=0;" edge="1" parent="WIyWlLk6GJQsqaUBKTNV-1">
          <mxGeometry width="50" height="50" relative="1" as="geometry">
            <mxPoint x="680" y="960" as="sourcePoint" />
            <mxPoint x="680" y="504" as="targetPoint" />
          </mxGeometry>
        </mxCell>
        <mxCell id="CSSnN474RRj8DlI3OBkh-4" value="" style="endArrow=classic;html=1;rounded=0;" edge="1" parent="WIyWlLk6GJQsqaUBKTNV-1">
          <mxGeometry width="50" height="50" relative="1" as="geometry">
            <mxPoint x="679.5" y="959.5699999999999" as="sourcePoint" />
            <mxPoint x="419.5" y="959.5699999999999" as="targetPoint" />
          </mxGeometry>
        </mxCell>
        <mxCell id="CSSnN474RRj8DlI3OBkh-5" value="" style="endArrow=none;html=1;rounded=0;entryX=0.347;entryY=0.991;entryDx=0;entryDy=0;entryPerimeter=0;" edge="1" parent="WIyWlLk6GJQsqaUBKTNV-1" target="m7vEDp3PDKTlhW1fVyWn-41">
          <mxGeometry width="50" height="50" relative="1" as="geometry">
            <mxPoint x="160" y="960" as="sourcePoint" />
            <mxPoint x="160" y="233" as="targetPoint" />
          </mxGeometry>
        </mxCell>
        <mxCell id="CSSnN474RRj8DlI3OBkh-6" value="" style="endArrow=classic;html=1;rounded=0;" edge="1" parent="WIyWlLk6GJQsqaUBKTNV-1">
          <mxGeometry width="50" height="50" relative="1" as="geometry">
            <mxPoint x="159.5" y="959.57" as="sourcePoint" />
            <mxPoint x="299.5" y="959.57" as="targetPoint" />
          </mxGeometry>
        </mxCell>
        <mxCell id="MwBAbuxJ3wHfdtHK_xG5-2" value="18:01-22:00?" style="rhombus;whiteSpace=wrap;html=1;" vertex="1" parent="WIyWlLk6GJQsqaUBKTNV-1">
          <mxGeometry x="280.5" y="760" width="161" height="62" as="geometry" />
        </mxCell>
        <mxCell id="MwBAbuxJ3wHfdtHK_xG5-3" value="" style="endArrow=classic;html=1;rounded=0;exitX=0.5;exitY=1;exitDx=0;exitDy=0;" edge="1" parent="WIyWlLk6GJQsqaUBKTNV-1">
          <mxGeometry width="50" height="50" relative="1" as="geometry">
            <mxPoint x="360.76" y="822" as="sourcePoint" />
            <mxPoint x="360.76" y="850" as="targetPoint" />
          </mxGeometry>
        </mxCell>
        <mxCell id="MwBAbuxJ3wHfdtHK_xG5-4" value="нет" style="text;html=1;align=center;verticalAlign=middle;resizable=0;points=[];autosize=1;strokeColor=none;fillColor=none;" vertex="1" parent="WIyWlLk6GJQsqaUBKTNV-1">
          <mxGeometry x="381" y="810" width="40" height="30" as="geometry" />
        </mxCell>
        <mxCell id="MwBAbuxJ3wHfdtHK_xG5-5" value="" style="endArrow=classic;html=1;rounded=0;" edge="1" parent="WIyWlLk6GJQsqaUBKTNV-1">
          <mxGeometry width="50" height="50" relative="1" as="geometry">
            <mxPoint x="442" y="790.76" as="sourcePoint" />
            <mxPoint x="480.5" y="790.76" as="targetPoint" />
          </mxGeometry>
        </mxCell>
        <mxCell id="MwBAbuxJ3wHfdtHK_xG5-6" value="&lt;br&gt;&lt;span style=&quot;color: rgb(0, 0, 0); font-family: Helvetica; font-size: 12px; font-style: normal; font-variant-ligatures: normal; font-variant-caps: normal; font-weight: 400; letter-spacing: normal; orphans: 2; text-align: center; text-indent: 0px; text-transform: none; widows: 2; word-spacing: 0px; -webkit-text-stroke-width: 0px; background-color: rgb(251, 251, 251); text-decoration-thickness: initial; text-decoration-style: initial; text-decoration-color: initial; float: none; display: inline !important;&quot;&gt;средняя скорость&lt;br&gt;30 км/ч&lt;/span&gt;" style="rounded=0;whiteSpace=wrap;html=1;" vertex="1" parent="WIyWlLk6GJQsqaUBKTNV-1">
          <mxGeometry x="480.5" y="752" width="130" height="70" as="geometry" />
        </mxCell>
        <mxCell id="MwBAbuxJ3wHfdtHK_xG5-7" value="да" style="text;html=1;align=center;verticalAlign=middle;resizable=0;points=[];autosize=1;strokeColor=none;fillColor=none;" vertex="1" parent="WIyWlLk6GJQsqaUBKTNV-1">
          <mxGeometry x="440.5" y="760" width="40" height="30" as="geometry" />
        </mxCell>
        <mxCell id="MwBAbuxJ3wHfdtHK_xG5-8" value="" style="endArrow=none;html=1;rounded=0;exitX=1;exitY=0.5;exitDx=0;exitDy=0;" edge="1" parent="WIyWlLk6GJQsqaUBKTNV-1">
          <mxGeometry width="50" height="50" relative="1" as="geometry">
            <mxPoint x="610.5" y="786.66" as="sourcePoint" />
            <mxPoint x="680.5" y="786.66" as="targetPoint" />
          </mxGeometry>
        </mxCell>
        <mxCell id="MwBAbuxJ3wHfdtHK_xG5-10" value="" style="endArrow=classic;html=1;rounded=0;entryX=0.5;entryY=0;entryDx=0;entryDy=0;" edge="1" parent="WIyWlLk6GJQsqaUBKTNV-1" target="m7vEDp3PDKTlhW1fVyWn-33">
          <mxGeometry width="50" height="50" relative="1" as="geometry">
            <mxPoint x="360" y="910" as="sourcePoint" />
            <mxPoint x="370.76" y="860" as="targetPoint" />
          </mxGeometry>
        </mxCell>
      </root>
    </mxGraphModel>
  </diagram>
  <diagram name="со стоимостью" id="iNjWb5DcBznVIpPfjn6B">
    <mxGraphModel dx="925" dy="514" grid="1" gridSize="10" guides="1" tooltips="1" connect="1" arrows="1" fold="1" page="1" pageScale="1" pageWidth="827" pageHeight="1169" math="0" shadow="0">
      <root>
        <mxCell id="S9OhtnVTu_zhAQSk6_er-0" />
        <mxCell id="S9OhtnVTu_zhAQSk6_er-1" parent="S9OhtnVTu_zhAQSk6_er-0" />
        <mxCell id="S9OhtnVTu_zhAQSk6_er-2" value="Начало" style="rounded=1;whiteSpace=wrap;html=1;" vertex="1" parent="S9OhtnVTu_zhAQSk6_er-1">
          <mxGeometry x="300" y="10" width="120" height="40" as="geometry" />
        </mxCell>
        <mxCell id="S9OhtnVTu_zhAQSk6_er-3" value="Конец" style="rounded=1;whiteSpace=wrap;html=1;" vertex="1" parent="S9OhtnVTu_zhAQSk6_er-1">
          <mxGeometry x="293" y="1050" width="120" height="40" as="geometry" />
        </mxCell>
        <mxCell id="S9OhtnVTu_zhAQSk6_er-7" value="пользователь выбрал вариант &quot;Такси&quot;" style="rounded=0;whiteSpace=wrap;html=1;" vertex="1" parent="S9OhtnVTu_zhAQSk6_er-1">
          <mxGeometry x="300" y="80" width="120" height="60" as="geometry" />
        </mxCell>
        <mxCell id="S9OhtnVTu_zhAQSk6_er-8" value="данные &lt;br&gt;корректны?" style="rhombus;whiteSpace=wrap;html=1;" vertex="1" parent="S9OhtnVTu_zhAQSk6_er-1">
          <mxGeometry x="299" y="163" width="121" height="80" as="geometry" />
        </mxCell>
        <mxCell id="S9OhtnVTu_zhAQSk6_er-9" value="" style="endArrow=classic;html=1;rounded=0;exitX=0;exitY=0.5;exitDx=0;exitDy=0;entryX=1;entryY=0.5;entryDx=0;entryDy=0;" edge="1" parent="S9OhtnVTu_zhAQSk6_er-1" source="S9OhtnVTu_zhAQSk6_er-8" target="S9OhtnVTu_zhAQSk6_er-11">
          <mxGeometry width="50" height="50" relative="1" as="geometry">
            <mxPoint x="180" y="280" as="sourcePoint" />
            <mxPoint x="220" y="220" as="targetPoint" />
          </mxGeometry>
        </mxCell>
        <mxCell id="S9OhtnVTu_zhAQSk6_er-10" value="нет" style="text;html=1;align=center;verticalAlign=middle;resizable=0;points=[];autosize=1;strokeColor=none;fillColor=none;" vertex="1" parent="S9OhtnVTu_zhAQSk6_er-1">
          <mxGeometry x="240" y="173" width="40" height="30" as="geometry" />
        </mxCell>
        <mxCell id="S9OhtnVTu_zhAQSk6_er-11" value="вывод сообщения об ошибке" style="rounded=0;whiteSpace=wrap;html=1;" vertex="1" parent="S9OhtnVTu_zhAQSk6_er-1">
          <mxGeometry x="120" y="173" width="110" height="60" as="geometry" />
        </mxCell>
        <mxCell id="S9OhtnVTu_zhAQSk6_er-12" value="поездка начинается &lt;br&gt;в диапазоне&lt;br&gt;00:01-08:00?" style="rhombus;whiteSpace=wrap;html=1;" vertex="1" parent="S9OhtnVTu_zhAQSk6_er-1">
          <mxGeometry x="280.5" y="450" width="161" height="100" as="geometry" />
        </mxCell>
        <mxCell id="S9OhtnVTu_zhAQSk6_er-13" value="" style="endArrow=classic;html=1;rounded=0;exitX=0.5;exitY=1;exitDx=0;exitDy=0;" edge="1" parent="S9OhtnVTu_zhAQSk6_er-1" source="S9OhtnVTu_zhAQSk6_er-18">
          <mxGeometry width="410" height="273" relative="1" as="geometry">
            <mxPoint x="360.66" y="507" as="sourcePoint" />
            <mxPoint x="361" y="450" as="targetPoint" />
          </mxGeometry>
        </mxCell>
        <mxCell id="S9OhtnVTu_zhAQSk6_er-14" value="система рассчитывает длину маршрута в х км" style="rounded=0;whiteSpace=wrap;html=1;" vertex="1" parent="S9OhtnVTu_zhAQSk6_er-1">
          <mxGeometry x="301" y="270" width="120" height="60" as="geometry" />
        </mxCell>
        <mxCell id="S9OhtnVTu_zhAQSk6_er-15" value="" style="endArrow=classic;html=1;rounded=0;entryX=0.484;entryY=-0.015;entryDx=0;entryDy=0;entryPerimeter=0;" edge="1" parent="S9OhtnVTu_zhAQSk6_er-1" target="S9OhtnVTu_zhAQSk6_er-14">
          <mxGeometry width="410" height="273" relative="1" as="geometry">
            <mxPoint x="359.4" y="243" as="sourcePoint" />
            <mxPoint x="359.4" y="263" as="targetPoint" />
            <Array as="points">
              <mxPoint x="360" y="270" />
            </Array>
          </mxGeometry>
        </mxCell>
        <mxCell id="S9OhtnVTu_zhAQSk6_er-16" value="да" style="text;html=1;align=center;verticalAlign=middle;resizable=0;points=[];autosize=1;strokeColor=none;fillColor=none;" vertex="1" parent="S9OhtnVTu_zhAQSk6_er-15">
          <mxGeometry x="360" y="240" width="40" height="30" as="geometry" />
        </mxCell>
        <mxCell id="S9OhtnVTu_zhAQSk6_er-18" value="анализ времени начала поездки для определения средней скорости" style="rounded=0;whiteSpace=wrap;html=1;" vertex="1" parent="S9OhtnVTu_zhAQSk6_er-1">
          <mxGeometry x="301" y="360" width="120" height="70" as="geometry" />
        </mxCell>
        <mxCell id="S9OhtnVTu_zhAQSk6_er-19" value="" style="endArrow=classic;html=1;rounded=0;" edge="1" parent="S9OhtnVTu_zhAQSk6_er-1">
          <mxGeometry width="50" height="50" relative="1" as="geometry">
            <mxPoint x="441.5" y="500" as="sourcePoint" />
            <mxPoint x="480" y="500" as="targetPoint" />
          </mxGeometry>
        </mxCell>
        <mxCell id="S9OhtnVTu_zhAQSk6_er-20" value="да" style="text;html=1;align=center;verticalAlign=middle;resizable=0;points=[];autosize=1;strokeColor=none;fillColor=none;" vertex="1" parent="S9OhtnVTu_zhAQSk6_er-1">
          <mxGeometry x="430" y="470" width="40" height="30" as="geometry" />
        </mxCell>
        <mxCell id="S9OhtnVTu_zhAQSk6_er-21" value="система рассчитывает время поездки по формуле&lt;br&gt;T(duration) = (х/50)*60" style="rounded=0;whiteSpace=wrap;html=1;" vertex="1" parent="S9OhtnVTu_zhAQSk6_er-1">
          <mxGeometry x="480" y="470" width="130" height="70" as="geometry" />
        </mxCell>
        <mxCell id="S9OhtnVTu_zhAQSk6_er-22" value="" style="endArrow=classic;html=1;rounded=0;exitX=0.5;exitY=1;exitDx=0;exitDy=0;" edge="1" parent="S9OhtnVTu_zhAQSk6_er-1" source="S9OhtnVTu_zhAQSk6_er-12">
          <mxGeometry width="50" height="50" relative="1" as="geometry">
            <mxPoint x="470" y="530" as="sourcePoint" />
            <mxPoint x="361" y="578" as="targetPoint" />
          </mxGeometry>
        </mxCell>
        <mxCell id="S9OhtnVTu_zhAQSk6_er-23" value="нет" style="text;html=1;align=center;verticalAlign=middle;resizable=0;points=[];autosize=1;strokeColor=none;fillColor=none;" vertex="1" parent="S9OhtnVTu_zhAQSk6_er-1">
          <mxGeometry x="360" y="540" width="40" height="30" as="geometry" />
        </mxCell>
        <mxCell id="S9OhtnVTu_zhAQSk6_er-24" value="08:01-12:00?" style="rhombus;whiteSpace=wrap;html=1;" vertex="1" parent="S9OhtnVTu_zhAQSk6_er-1">
          <mxGeometry x="280" y="578" width="161" height="62" as="geometry" />
        </mxCell>
        <mxCell id="S9OhtnVTu_zhAQSk6_er-25" value="" style="endArrow=classic;html=1;rounded=0;" edge="1" parent="S9OhtnVTu_zhAQSk6_er-1">
          <mxGeometry width="50" height="50" relative="1" as="geometry">
            <mxPoint x="441.5" y="608.76" as="sourcePoint" />
            <mxPoint x="480" y="608.76" as="targetPoint" />
          </mxGeometry>
        </mxCell>
        <mxCell id="S9OhtnVTu_zhAQSk6_er-26" value="система рассчитывает время поездки по формуле&lt;br&gt;T(duration) = (х/35)*60" style="rounded=0;whiteSpace=wrap;html=1;" vertex="1" parent="S9OhtnVTu_zhAQSk6_er-1">
          <mxGeometry x="480" y="570" width="130" height="70" as="geometry" />
        </mxCell>
        <mxCell id="S9OhtnVTu_zhAQSk6_er-27" value="да" style="text;html=1;align=center;verticalAlign=middle;resizable=0;points=[];autosize=1;strokeColor=none;fillColor=none;" vertex="1" parent="S9OhtnVTu_zhAQSk6_er-1">
          <mxGeometry x="430" y="560" width="40" height="30" as="geometry" />
        </mxCell>
        <mxCell id="S9OhtnVTu_zhAQSk6_er-28" value="" style="endArrow=classic;html=1;rounded=0;exitX=0.5;exitY=1;exitDx=0;exitDy=0;" edge="1" parent="S9OhtnVTu_zhAQSk6_er-1">
          <mxGeometry width="50" height="50" relative="1" as="geometry">
            <mxPoint x="360.76" y="640" as="sourcePoint" />
            <mxPoint x="360.76" y="668" as="targetPoint" />
          </mxGeometry>
        </mxCell>
        <mxCell id="S9OhtnVTu_zhAQSk6_er-29" value="нет" style="text;html=1;align=center;verticalAlign=middle;resizable=0;points=[];autosize=1;strokeColor=none;fillColor=none;" vertex="1" parent="S9OhtnVTu_zhAQSk6_er-1">
          <mxGeometry x="380" y="640" width="40" height="30" as="geometry" />
        </mxCell>
        <mxCell id="S9OhtnVTu_zhAQSk6_er-30" value="12:01-18:00?" style="rhombus;whiteSpace=wrap;html=1;" vertex="1" parent="S9OhtnVTu_zhAQSk6_er-1">
          <mxGeometry x="279.5" y="670" width="161" height="62" as="geometry" />
        </mxCell>
        <mxCell id="S9OhtnVTu_zhAQSk6_er-31" value="" style="endArrow=classic;html=1;rounded=0;" edge="1" parent="S9OhtnVTu_zhAQSk6_er-1">
          <mxGeometry width="50" height="50" relative="1" as="geometry">
            <mxPoint x="441.5" y="700.76" as="sourcePoint" />
            <mxPoint x="480" y="700.76" as="targetPoint" />
          </mxGeometry>
        </mxCell>
        <mxCell id="S9OhtnVTu_zhAQSk6_er-32" value="система рассчитывает время поездки по формуле&lt;br&gt;T(duration) = (х/42)*60" style="rounded=0;whiteSpace=wrap;html=1;" vertex="1" parent="S9OhtnVTu_zhAQSk6_er-1">
          <mxGeometry x="480" y="662" width="130" height="70" as="geometry" />
        </mxCell>
        <mxCell id="S9OhtnVTu_zhAQSk6_er-33" value="" style="endArrow=classic;html=1;rounded=0;exitX=0.5;exitY=1;exitDx=0;exitDy=0;" edge="1" parent="S9OhtnVTu_zhAQSk6_er-1">
          <mxGeometry width="50" height="50" relative="1" as="geometry">
            <mxPoint x="359.76" y="732" as="sourcePoint" />
            <mxPoint x="359.76" y="760" as="targetPoint" />
          </mxGeometry>
        </mxCell>
        <mxCell id="-xzq4lpS988OvThVAsRn-9" value="" style="edgeStyle=orthogonalEdgeStyle;rounded=0;orthogonalLoop=1;jettySize=auto;html=1;" edge="1" parent="S9OhtnVTu_zhAQSk6_er-1" source="S9OhtnVTu_zhAQSk6_er-34" target="-xzq4lpS988OvThVAsRn-3">
          <mxGeometry relative="1" as="geometry" />
        </mxCell>
        <mxCell id="-xzq4lpS988OvThVAsRn-10" value="" style="edgeStyle=orthogonalEdgeStyle;rounded=0;orthogonalLoop=1;jettySize=auto;html=1;" edge="1" parent="S9OhtnVTu_zhAQSk6_er-1" source="S9OhtnVTu_zhAQSk6_er-34" target="-xzq4lpS988OvThVAsRn-3">
          <mxGeometry relative="1" as="geometry" />
        </mxCell>
        <mxCell id="S9OhtnVTu_zhAQSk6_er-34" value="нет" style="text;html=1;align=center;verticalAlign=middle;resizable=0;points=[];autosize=1;strokeColor=none;fillColor=none;" vertex="1" parent="S9OhtnVTu_zhAQSk6_er-1">
          <mxGeometry x="373" y="730" width="40" height="30" as="geometry" />
        </mxCell>
        <mxCell id="S9OhtnVTu_zhAQSk6_er-35" value="да" style="text;html=1;align=center;verticalAlign=middle;resizable=0;points=[];autosize=1;strokeColor=none;fillColor=none;" vertex="1" parent="S9OhtnVTu_zhAQSk6_er-1">
          <mxGeometry x="440" y="670" width="40" height="30" as="geometry" />
        </mxCell>
        <mxCell id="S9OhtnVTu_zhAQSk6_er-38" value="" style="endArrow=classic;html=1;rounded=0;exitX=0.5;exitY=1;exitDx=0;exitDy=0;" edge="1" parent="S9OhtnVTu_zhAQSk6_er-1">
          <mxGeometry width="50" height="50" relative="1" as="geometry">
            <mxPoint x="360.68" y="920" as="sourcePoint" />
            <mxPoint x="360.68" y="948" as="targetPoint" />
          </mxGeometry>
        </mxCell>
        <mxCell id="pIR1MTkr4aX7EY5vmdAG-1" value="" style="endArrow=none;html=1;rounded=0;exitX=1;exitY=0.5;exitDx=0;exitDy=0;" edge="1" parent="S9OhtnVTu_zhAQSk6_er-1" source="S9OhtnVTu_zhAQSk6_er-21">
          <mxGeometry width="50" height="50" relative="1" as="geometry">
            <mxPoint x="600" y="730" as="sourcePoint" />
            <mxPoint x="680" y="505" as="targetPoint" />
          </mxGeometry>
        </mxCell>
        <mxCell id="pIR1MTkr4aX7EY5vmdAG-2" value="" style="endArrow=none;html=1;rounded=0;exitX=1;exitY=0.5;exitDx=0;exitDy=0;" edge="1" parent="S9OhtnVTu_zhAQSk6_er-1">
          <mxGeometry width="50" height="50" relative="1" as="geometry">
            <mxPoint x="610" y="608.66" as="sourcePoint" />
            <mxPoint x="680" y="608.66" as="targetPoint" />
          </mxGeometry>
        </mxCell>
        <mxCell id="pIR1MTkr4aX7EY5vmdAG-3" value="" style="endArrow=none;html=1;rounded=0;exitX=1;exitY=0.5;exitDx=0;exitDy=0;" edge="1" parent="S9OhtnVTu_zhAQSk6_er-1">
          <mxGeometry width="50" height="50" relative="1" as="geometry">
            <mxPoint x="610" y="696.66" as="sourcePoint" />
            <mxPoint x="680" y="696.66" as="targetPoint" />
          </mxGeometry>
        </mxCell>
        <mxCell id="pIR1MTkr4aX7EY5vmdAG-4" value="" style="endArrow=none;html=1;rounded=0;" edge="1" parent="S9OhtnVTu_zhAQSk6_er-1">
          <mxGeometry width="50" height="50" relative="1" as="geometry">
            <mxPoint x="680" y="990" as="sourcePoint" />
            <mxPoint x="680" y="504" as="targetPoint" />
          </mxGeometry>
        </mxCell>
        <mxCell id="pIR1MTkr4aX7EY5vmdAG-5" value="" style="endArrow=classic;html=1;rounded=0;entryX=0.998;entryY=0.282;entryDx=0;entryDy=0;entryPerimeter=0;" edge="1" parent="S9OhtnVTu_zhAQSk6_er-1">
          <mxGeometry width="50" height="50" relative="1" as="geometry">
            <mxPoint x="680" y="990" as="sourcePoint" />
            <mxPoint x="421" y="991.7400000000002" as="targetPoint" />
          </mxGeometry>
        </mxCell>
        <mxCell id="pIR1MTkr4aX7EY5vmdAG-6" value="" style="endArrow=none;html=1;rounded=0;" edge="1" parent="S9OhtnVTu_zhAQSk6_er-1">
          <mxGeometry width="50" height="50" relative="1" as="geometry">
            <mxPoint x="160" y="990" as="sourcePoint" />
            <mxPoint x="160" y="233" as="targetPoint" />
          </mxGeometry>
        </mxCell>
        <mxCell id="pIR1MTkr4aX7EY5vmdAG-7" value="" style="endArrow=classic;html=1;rounded=0;" edge="1" parent="S9OhtnVTu_zhAQSk6_er-1">
          <mxGeometry width="50" height="50" relative="1" as="geometry">
            <mxPoint x="161" y="990" as="sourcePoint" />
            <mxPoint x="291" y="990" as="targetPoint" />
          </mxGeometry>
        </mxCell>
        <mxCell id="pIR1MTkr4aX7EY5vmdAG-8" value="" style="endArrow=classic;html=1;rounded=0;exitX=0.5;exitY=1;exitDx=0;exitDy=0;" edge="1" parent="S9OhtnVTu_zhAQSk6_er-1">
          <mxGeometry width="50" height="50" relative="1" as="geometry">
            <mxPoint x="354.18" y="1020" as="sourcePoint" />
            <mxPoint x="354.18" y="1048" as="targetPoint" />
          </mxGeometry>
        </mxCell>
        <mxCell id="pIR1MTkr4aX7EY5vmdAG-9" value="" style="endArrow=classic;html=1;rounded=0;" edge="1" parent="S9OhtnVTu_zhAQSk6_er-1">
          <mxGeometry width="50" height="50" relative="1" as="geometry">
            <mxPoint x="360" y="330" as="sourcePoint" />
            <mxPoint x="360" y="360" as="targetPoint" />
          </mxGeometry>
        </mxCell>
        <mxCell id="pIR1MTkr4aX7EY5vmdAG-13" value="" style="endArrow=classic;html=1;rounded=0;exitX=0.5;exitY=1;exitDx=0;exitDy=0;entryX=0.5;entryY=0;entryDx=0;entryDy=0;" edge="1" parent="S9OhtnVTu_zhAQSk6_er-1" source="S9OhtnVTu_zhAQSk6_er-2" target="S9OhtnVTu_zhAQSk6_er-7">
          <mxGeometry width="50" height="50" relative="1" as="geometry">
            <mxPoint x="340" y="100" as="sourcePoint" />
            <mxPoint x="390" y="50" as="targetPoint" />
          </mxGeometry>
        </mxCell>
        <mxCell id="pIR1MTkr4aX7EY5vmdAG-14" value="" style="endArrow=classic;html=1;rounded=0;exitX=0.5;exitY=1;exitDx=0;exitDy=0;entryX=0.5;entryY=0;entryDx=0;entryDy=0;" edge="1" parent="S9OhtnVTu_zhAQSk6_er-1" target="S9OhtnVTu_zhAQSk6_er-8">
          <mxGeometry width="50" height="50" relative="1" as="geometry">
            <mxPoint x="359.91999999999996" y="140" as="sourcePoint" />
            <mxPoint x="359.08" y="160" as="targetPoint" />
          </mxGeometry>
        </mxCell>
        <mxCell id="-xzq4lpS988OvThVAsRn-0" value="время начала поездки 22:01-00:00, система рассчитывает время поездки по формуле&lt;br&gt;T(duration) = (х/50)*60" style="rounded=0;whiteSpace=wrap;html=1;" vertex="1" parent="S9OhtnVTu_zhAQSk6_er-1">
          <mxGeometry x="294.5" y="850" width="130" height="70" as="geometry" />
        </mxCell>
        <mxCell id="-xzq4lpS988OvThVAsRn-1" value="система рассчитывает стоимость поездки в рублях по формуле Ц=T(duration)*11" style="rounded=0;whiteSpace=wrap;html=1;" vertex="1" parent="S9OhtnVTu_zhAQSk6_er-1">
          <mxGeometry x="291" y="950" width="130" height="70" as="geometry" />
        </mxCell>
        <mxCell id="-xzq4lpS988OvThVAsRn-3" value="18:01-22:00?" style="rhombus;whiteSpace=wrap;html=1;" vertex="1" parent="S9OhtnVTu_zhAQSk6_er-1">
          <mxGeometry x="280.5" y="760" width="161" height="62" as="geometry" />
        </mxCell>
        <mxCell id="-xzq4lpS988OvThVAsRn-4" value="" style="endArrow=classic;html=1;rounded=0;" edge="1" parent="S9OhtnVTu_zhAQSk6_er-1">
          <mxGeometry width="50" height="50" relative="1" as="geometry">
            <mxPoint x="442" y="790.76" as="sourcePoint" />
            <mxPoint x="480.5" y="790.76" as="targetPoint" />
          </mxGeometry>
        </mxCell>
        <mxCell id="-xzq4lpS988OvThVAsRn-5" value="система рассчитывает время поездки по формуле&lt;br&gt;T(duration) = (х/30)*60" style="rounded=0;whiteSpace=wrap;html=1;" vertex="1" parent="S9OhtnVTu_zhAQSk6_er-1">
          <mxGeometry x="480.5" y="752" width="130" height="70" as="geometry" />
        </mxCell>
        <mxCell id="-xzq4lpS988OvThVAsRn-6" value="да" style="text;html=1;align=center;verticalAlign=middle;resizable=0;points=[];autosize=1;strokeColor=none;fillColor=none;" vertex="1" parent="S9OhtnVTu_zhAQSk6_er-1">
          <mxGeometry x="440.5" y="760" width="40" height="30" as="geometry" />
        </mxCell>
        <mxCell id="-xzq4lpS988OvThVAsRn-7" value="" style="endArrow=none;html=1;rounded=0;exitX=1;exitY=0.5;exitDx=0;exitDy=0;" edge="1" parent="S9OhtnVTu_zhAQSk6_er-1">
          <mxGeometry width="50" height="50" relative="1" as="geometry">
            <mxPoint x="610.5" y="786.66" as="sourcePoint" />
            <mxPoint x="680.5" y="786.66" as="targetPoint" />
          </mxGeometry>
        </mxCell>
        <mxCell id="-xzq4lpS988OvThVAsRn-11" value="" style="endArrow=classic;html=1;rounded=0;exitX=0.5;exitY=1;exitDx=0;exitDy=0;" edge="1" parent="S9OhtnVTu_zhAQSk6_er-1">
          <mxGeometry width="50" height="50" relative="1" as="geometry">
            <mxPoint x="360.68" y="822" as="sourcePoint" />
            <mxPoint x="360.68" y="850" as="targetPoint" />
          </mxGeometry>
        </mxCell>
      </root>
    </mxGraphModel>
  </diagram>
</mxfile>
